HIERARCHY
ROOT hip
{
  OFFSET 0 0 0
  CHANNELS 6 Xposition Yposition Zposition Zrotation Yrotation Xrotation
  JOINT abdomen
  {
    OFFSET 0 20.6881 -0.73152
    CHANNELS 3 Zrotation Xrotation Yrotation
    JOINT chest
    {
      OFFSET 0 11.7043 -0.48768
      CHANNELS 3 Zrotation Xrotation Yrotation
      JOINT neck
      {
        OFFSET 0 22.1894 -2.19456
        CHANNELS 3 Zrotation Xrotation Yrotation
        JOINT head
        {
          OFFSET -0.24384 7.07133 1.2192
          CHANNELS 3 Zrotation Xrotation Yrotation
          JOINT leftEye
          {
            OFFSET 4.14528 8.04674 8.04672
            CHANNELS 3 Zrotation Xrotation Yrotation
            End Site
            {
              OFFSET 1 0 0
            }
          }
          JOINT rightEye
          {
            OFFSET -3.6576 8.04674 8.04672
            CHANNELS 3 Zrotation Xrotation Yrotation
            End Site
            {
              OFFSET 1 0 0
            }
          }
        }
      }
      JOINT rCollar
      {
        OFFSET -2.68224 19.2634 -4.8768
        CHANNELS 3 Zrotation Xrotation Yrotation
        JOINT rShldr
        {
          OFFSET -8.77824 -1.95073 1.46304
          CHANNELS 3 Zrotation Xrotation Yrotation
          JOINT rForeArm
          {
            OFFSET -28.1742 -1.7115 0.48768
            CHANNELS 3 Zrotation Xrotation Yrotation
            JOINT rHand
            {
              OFFSET -22.5879 0.773209 7.07136
              CHANNELS 3 Zrotation Xrotation Yrotation
              JOINT rThumb1
              {
                OFFSET -1.2192 -0.487915 3.41376
                CHANNELS 3 Zrotation Xrotation Yrotation
                JOINT rThumb2
                {
                  OFFSET -3.37035 -0.52449 3.41376
                  CHANNELS 3 Zrotation Xrotation Yrotation
                  End Site
                  {
                    OFFSET -1.78271 -1.18214 1.43049
                  }
                }
              }
              JOINT rIndex1
              {
                OFFSET -7.75947 0.938293 5.60832
                CHANNELS 3 Zrotation Xrotation Yrotation
                JOINT rIndex2
                {
                  OFFSET -2.54057 -0.884171 1.56538
                  CHANNELS 3 Zrotation Xrotation Yrotation
                  End Site
                  {
                    OFFSET -1.62519 -0.234802 1.16502
                  }
                }
              }
              JOINT rMid1
              {
                OFFSET -8.24714 1.18213 3.41376
                CHANNELS 3 Zrotation Xrotation Yrotation
                JOINT rMid2
                {
                  OFFSET -3.10165 -0.590103 1.0647
                  CHANNELS 3 Zrotation Xrotation Yrotation
                  End Site
                  {
                    OFFSET -2.48547 -0.328903 0.83742
                  }
                }
              }
              JOINT rRing1
              {
                OFFSET -8.82822 0.546677 1.51678
                CHANNELS 3 Zrotation Xrotation Yrotation
                JOINT rRing2
                {
                  OFFSET -2.60934 -0.819778 -0.0198488
                  CHANNELS 3 Zrotation Xrotation Yrotation
                  End Site
                  {
                    OFFSET -2.33842 -0.294052 0.168128
                  }
                }
              }
              JOINT rPinky1
              {
                OFFSET -8.27202 -0.0477905 -0.4584
                CHANNELS 3 Zrotation Xrotation Yrotation
                JOINT rPinky2
                {
                  OFFSET -1.82734 -0.647385 -0.700984
                  CHANNELS 3 Zrotation Xrotation Yrotation
                  End Site
                  {
                    OFFSET -1.69225 -0.51767 -0.607171
                  }
                }
              }
            }
          }
        }
      }
      JOINT lCollar
      {
        OFFSET 2.68224 19.2634 -4.8768
        CHANNELS 3 Zrotation Xrotation Yrotation
        JOINT lShldr
        {
          OFFSET 8.77824 -1.95073 1.46304
          CHANNELS 3 Zrotation Xrotation Yrotation
          JOINT lForeArm
          {
            OFFSET 28.1742 -1.7115 0.48768
            CHANNELS 3 Zrotation Xrotation Yrotation
            JOINT lHand
            {
              OFFSET 22.5879 0.773209 7.07136
              CHANNELS 3 Zrotation Xrotation Yrotation
              JOINT lThumb1
              {
                OFFSET 1.2192 -0.487915 3.41376
                CHANNELS 3 Zrotation Xrotation Yrotation
                JOINT lThumb2
                {
                  OFFSET 3.37035 -0.52449 3.41376
                  CHANNELS 3 Zrotation Xrotation Yrotation
                  End Site
                  {
                    OFFSET 1.78271 -1.18214 1.43049
                  }
                }
              }
              JOINT lIndex1
              {
                OFFSET 7.75947 0.938293 5.60832
                CHANNELS 3 Zrotation Xrotation Yrotation
                JOINT lIndex2
                {
                  OFFSET 2.54057 -0.884171 1.56538
                  CHANNELS 3 Zrotation Xrotation Yrotation
                  End Site
                  {
                    OFFSET 1.62519 -0.234802 1.16502
                  }
                }
              }
              JOINT lMid1
              {
                OFFSET 8.24714 1.18213 3.41376
                CHANNELS 3 Zrotation Xrotation Yrotation
                JOINT lMid2
                {
                  OFFSET 3.10165 -0.590103 1.0647
                  CHANNELS 3 Zrotation Xrotation Yrotation
                  End Site
                  {
                    OFFSET 2.48547 -0.328903 0.83742
                  }
                }
              }
              JOINT lRing1
              {
                OFFSET 8.82822 0.546677 1.51678
                CHANNELS 3 Zrotation Xrotation Yrotation
                JOINT lRing2
                {
                  OFFSET 2.60934 -0.819778 -0.0198488
                  CHANNELS 3 Zrotation Xrotation Yrotation
                  End Site
                  {
                    OFFSET 2.33842 -0.294052 0.168128
                  }
                }
              }
              JOINT lPinky1
              {
                OFFSET 8.27202 -0.0477905 -0.4584
                CHANNELS 3 Zrotation Xrotation Yrotation
                JOINT lPinky2
                {
                  OFFSET 1.82734 -0.647385 -0.700984
                  CHANNELS 3 Zrotation Xrotation Yrotation
                  End Site
                  {
                    OFFSET 1.69225 -0.51767 -0.607171
                  }
                }
              }
            }
          }
        }
      }
    }
  }
  JOINT rButtock
  {
    OFFSET -8.77824 4.35084 1.2192
    CHANNELS 3 Zrotation Xrotation Yrotation
    JOINT rThigh
    {
      OFFSET 0 -1.70687 -2.19456
      CHANNELS 3 Zrotation Xrotation Yrotation
      JOINT rShin
      {
        OFFSET 0 -36.8199 0.73152
        CHANNELS 3 Zrotation Xrotation Yrotation
        JOINT rFoot
        {
          OFFSET 0.73152 -45.1104 -5.12064
          CHANNELS 3 Zrotation Xrotation Yrotation
          End Site
          {
            OFFSET -1.1221 -3.69964 12.103
          }
        }
      }
    }
  }
  JOINT lButtock
  {
    OFFSET 8.77824 4.35084 1.2192
    CHANNELS 3 Zrotation Xrotation Yrotation
    JOINT lThigh
    {
      OFFSET 0 -1.70687 -2.19456
      CHANNELS 3 Zrotation Xrotation Yrotation
      JOINT lShin
      {
        OFFSET 0 -36.8199 0.73152
        CHANNELS 3 Zrotation Xrotation Yrotation
        JOINT lFoot
        {
          OFFSET -0.73152 -45.1104 -5.12064
          CHANNELS 3 Zrotation Xrotation Yrotation
          End Site
          {
            OFFSET 1.1221 -3.69964 12.103
          }
        }
      }
    }
  }
}
MOTION
Frames:	6
Frame Time:	0.00833333
280.064 56.1783 94.9002 0.0 0.0 0.0 -1.09223 -0.0041101 -0.0300705 -0.301182 -0.00346619 -0.0521751 5.33122e-16 0.0 -1.86361e-16 1.12748e-15 3.18055e-15 -5.87036e-16 -0.0 0.0 0.0 -0.0 0.0 0.0 1.47835e-16 1.18417e-17 9.93923e-17 5.5386e-15 1.2424e-17 -1.19271e-15 8.69683e-14 -1.70955e-14 -3.18055e-15 9.8868e-13 6.34372e-14 -4.13472e-13 2.33383e-12 1.03897e-13 -8.74653e-13 4.02658e-12 1.81292e-13 -1.51712e-12 2.33811e-12 1.03766e-13 -8.90555e-13 7.73091 5.47488 0.417314 2.33323e-12 1.03467e-13 -8.74653e-13 2.90554 0.965183 0.102902 2.33621e-12 1.03865e-13 -8.75448e-13 10.2786 0.731801 0.0259123 2.3222e-12 1.08139e-13 -8.71472e-13 2.22167 -0.733487 -0.20892 -4.84336e-17 1.06769e-17 -2.98177e-16 3.60986e-15 1.11816e-16 -2.38542e-15 8.72665e-14 3.26007e-14 -6.99722e-14 1.00173e-12 1.23495e-14 -3.24417e-13 2.36852e-12 1.01042e-13 -8.74653e-13 4.10292e-12 1.7175e-13 -1.5044e-12 2.36355e-12 1.00187e-13 -8.6193e-13 -7.73091 5.47488 -0.417314 2.37016e-12 1.00187e-13 -8.74653e-13 -2.90554 0.965183 -0.102902 2.3611e-12 1.00983e-13 -8.72267e-13 -10.2786 0.731801 -0.0259123 2.37011e-12 1.0297e-13 -8.84194e-13 -2.22167 -0.733487 0.20892 -2.03217e-16 0.0 -3.88251e-19 -0.322727 -1.92007 -0.0117097 -0.00931508 -2.07855 -0.0769622 -0.505267 3.99668 0.13928 2.03217e-16 0.0 3.88251e-19 -1.34028 -5.66982 0.11815 -0.000496603 4.71372 -0.032001 0.52166 0.954284 -0.0789666
277.012 53.3087 91.4222 -3.6083 -28.5352 5.3592 -0.857602 -0.125483 -0.648389 -0.310053 -2.392 -0.244445 -2.27353 1.77117 -4.01314 5.30417 -2.23087 -7.3899 -0.0 0.0 0.0 -0.0 0.0 0.0 -1.8149e-14 9.11134e-15 -2.31052e-14 1.52458 17.8274 6.70034 -27.3225 -24.852 13.5998 0.0105893 -2.28304 -0.319941 -8.69538e-12 -2.75572e-10 5.34609e-11 -1.48061e-11 -4.69632e-10 9.08082e-11 -8.68905e-12 -2.75564e-10 5.34448e-11 7.73091 5.47488 0.417314 -8.69595e-12 -2.75566e-10 5.34591e-11 2.90554 0.965183 0.102902 -8.69046e-12 -2.75573e-10 5.34598e-11 10.2786 0.731801 0.0259123 -8.70366e-12 -2.7557e-10 5.34658e-11 2.22167 -0.733487 -0.20892 -1.83254e-14 9.11225e-15 -2.35086e-14 2.00403 18.018 -5.70646 29.1944 -26.327 -12.7143 -0.0360501 -4.21376 0.586434 6.90542e-11 7.94793e-11 2.14854e-10 1.17868e-10 1.3851e-10 3.72441e-10 6.90499e-11 7.94794e-11 2.14867e-10 -7.73091 5.47488 -0.417314 6.90554e-11 7.94793e-11 2.14853e-10 -2.90554 0.965183 -0.102902 6.90467e-11 7.94799e-11 2.14857e-10 -10.2786 0.731801 -0.0259123 6.90554e-11 7.94818e-11 2.14849e-10 -2.22167 -0.733487 0.20892 -2.03217e-16 0.0 -3.88251e-19 -4.08431 -12.303 -13.315 0.285682 20.7762 0.235427 -0.966326 -4.49923 -4.62294 2.03217e-16 0.0 3.88251e-19 2.28075 -15.9253 10.7357 -0.0589245 26.0783 -0.327174 0.648388 -8.24713 0.987052
277.009 53.305 91.428 -3.6116 -28.5432 5.3067 -0.60872 -0.252667 -1.30386 -0.340291 -4.91878 -0.449656 -4.40807 3.61589 -8.26938 10.2916 -4.47136 -15.2393 -0.0 0.0 0.0 -0.0 0.0 0.0 -4.03796e-14 1.37442e-14 -5.64952e-14 -2.30639 35.7975 16.2588 -39.0674 -45.7358 37.8292 -0.0060321 -4.6988 -0.660208 -3.58187e-11 -6.58121e-10 1.17652e-10 -6.13298e-11 -1.12235e-09 1.99818e-10 -3.58101e-11 -6.58103e-10 1.17635e-10 7.73091 5.47488 0.417314 -3.58193e-11 -6.58106e-10 1.17648e-10 2.90554 0.965183 0.102902 -3.5811e-11 -6.58121e-10 1.1765e-10 10.2786 0.731801 0.0259123 -3.58234e-11 -6.5812e-10 1.17658e-10 2.22167 -0.733487 -0.20892 -4.05346e-14 1.37472e-14 -5.69083e-14 8.85466 36.4213 -13.9245 41.9426 -49.0054 -37.2667 0.0206135 -8.6671 1.21705 1.43424e-10 1.86625e-10 4.91571e-10 2.44383e-10 3.25225e-10 8.51858e-10 1.4342e-10 1.86626e-10 4.91584e-10 -7.73091 5.47488 -0.417314 1.43425e-10 1.86626e-10 4.91569e-10 -2.90554 0.965183 -0.102902 1.43416e-10 1.86626e-10 4.91575e-10 -10.2786 0.731801 -0.0259123 1.43425e-10 1.86628e-10 4.9157e-10 -2.22167 -0.733487 0.20892 -2.03217e-16 0.0 -3.88251e-19 -13.4243 -21.2627 -28.8658 0.233691 44.9354 0.754498 -3.01924 -13.3029 -9.91142 2.03217e-16 0.0 3.88251e-19 10.5299 -25.3595 23.4782 0.236603 48.666 -0.864285 1.16228 -17.9678 2.17239
276.987 53.301 91.4334 -3.5944 -28.5438 5.262 -0.396202 -0.368053 -1.88506 -0.376227 -7.16869 -0.633298 -6.07972 5.20917 -12.0843 14.2254 -6.24837 -22.2923 -0.0 0.0 0.0 -0.0 0.0 0.0 -5.47425e-14 2.73103e-14 -6.95145e-14 -13.3905 49.6983 30.4444 -31.2464 -50.9673 72.6892 -0.0451875 -6.84827 -0.965953 -3.07538e-11 -8.26925e-10 1.62132e-10 -5.24714e-11 -1.40926e-09 2.75459e-10 -3.07433e-11 -8.269e-10 1.62116e-10 7.73091 5.47488 0.417314 -3.07543e-11 -8.26904e-10 1.62126e-10 2.90554 0.965183 0.102902 -3.07438e-11 -8.26925e-10 1.6213e-10 10.2786 0.731801 0.0259123 -3.07554e-11 -8.26925e-10 1.6214e-10 2.22167 -0.733487 -0.20892 -5.48792e-14 2.73154e-14 -6.99295e-14 22.0137 51.2229 -26.5854 31.0127 -54.7714 -76.5764 0.156044 -12.6359 1.79811 2.02426e-10 2.38236e-10 6.46313e-10 3.45397e-10 4.15187e-10 1.12033e-09 2.02423e-10 2.38238e-10 6.46325e-10 -7.73091 5.47488 -0.417314 2.02426e-10 2.38238e-10 6.4631e-10 -2.90554 0.965183 -0.102902 2.02418e-10 2.38238e-10 6.46317e-10 -10.2786 0.731801 -0.0259123 2.02426e-10 2.3824e-10 6.46314e-10 -2.22167 -0.733487 0.20892 -2.03217e-16 0.0 -3.88251e-19 -25.9859 -25.803 -44.3335 -0.7499 66.473 2.03998 -6.31023 -20.855 -15.1154 2.03217e-16 0.0 3.88251e-19 21.8373 -31.3498 36.7416 1.50636 68.7936 -2.26135 2.02874 -26.6118 3.45481
276.954 53.2987 91.4406 -3.5883 -28.5664 5.2096 -0.269121 -0.454108 -2.28057 -0.391738 -8.72675 -0.758926 -7.11662 6.27352 -14.753 16.7064 -7.29312 -27.2358 -0.0 0.0 0.0 -0.0 0.0 0.0 -4.9436e-14 6.32096e-14 -3.16068e-14 -27.9523 56.7693 46.1597 -26.6598 -44.8692 93.1932 -0.0859259 -8.33282 -1.17951 5.47819e-11 -4.61366e-10 1.57336e-10 9.48426e-11 -7.81634e-10 2.6768e-10 5.4793e-11 -4.6134e-10 1.5732e-10 7.73091 5.47488 0.417314 5.47813e-11 -4.61343e-10 1.57329e-10 2.90554 0.965183 0.102902 5.47927e-11 -4.61367e-10 1.57334e-10 10.2786 0.731801 0.0259123 5.47819e-11 -4.61367e-10 1.57345e-10 2.22167 -0.733487 -0.20892 -4.95621e-14 6.32166e-14 -3.20043e-14 38.3833 59.3887 -41.7506 25.1776 -47.7138 -99.3088 0.299935 -15.3985 2.21832 2.23007e-10 1.51011e-10 4.96116e-10 3.8266e-10 2.63267e-10 8.6145e-10 2.23004e-10 1.51014e-10 4.96128e-10 -7.73091 5.47488 -0.417314 2.23007e-10 1.51013e-10 4.96112e-10 -2.90554 0.965183 -0.102902 2.22999e-10 1.51013e-10 4.9612e-10 -10.2786 0.731801 -0.0259123 2.23008e-10 1.51015e-10 4.96119e-10 -2.22167 -0.733487 0.20892 -2.03217e-16 0.0 -3.88251e-19 -36.29 -26.3414 -55.3998 -5.35879 81.443 6.7999 -9.49701 -25.9097 -19.1162 2.03217e-16 0.0 3.88251e-19 31.5802 -33.5502 46.8435 7.06826 82.7527 -7.87193 2.99967 -32.5959 4.68017
276.925 53.2988 91.4513 -3.5643 -28.6013 5.1599 -0.259851 -0.498544 -2.41394 -0.362008 -9.31701 -0.799856 -7.49441 6.66667 -15.7879 17.6347 -7.59982 -29.1584 -0.0 0.0 0.0 -0.0 0.0 0.0 -7.41161e-15 1.4151e-13 1.37159e-13 -35.2978 58.6047 53.7305 -26.7063 -41.0751 98.6629 -0.104178 -8.88263 -1.25924 4.10265e-10 1.83354e-09 -5.15211e-11 7.07812e-10 3.16195e-09 -8.86591e-11 4.10275e-10 1.83355e-09 -5.15358e-11 7.73091 5.47488 0.417314 4.10264e-10 1.83356e-09 -5.15274e-11 2.90554 0.965183 0.102902 4.10274e-10 1.83354e-09 -5.15226e-11 10.2786 0.731801 0.0259123 4.10264e-10 1.83354e-09 -5.15111e-11 2.22167 -0.733487 -0.20892 -7.54088e-15 1.41519e-13 1.36816e-13 46.9484 61.716 -49.6635 25.3532 -43.45 -105.013 0.367831 -16.4799 2.38722 2.57393e-10 -1.97348e-10 -3.73244e-10 4.50127e-10 -3.44543e-10 -6.39708e-10 2.57391e-10 -1.97345e-10 -3.73231e-10 -7.73091 5.47488 -0.417314 2.57393e-10 -1.97346e-10 -3.73247e-10 -2.90554 0.965183 -0.102902 2.57387e-10 -1.97346e-10 -3.73242e-10 -10.2786 0.731801 -0.0259123 2.57395e-10 -1.97344e-10 -3.73243e-10 -2.22167 -0.733487 0.20892 -2.03217e-16 0.0 -3.88251e-19 -40.4862 -25.8991 -59.6089 -21.0177 87.1611 22.5021 -10.9293 -27.9873 -20.6387 2.03217e-16 0.0 3.88251e-19 35.6504 -33.837 50.8494 30.3566 87.9575 -31.1857 3.69051 -34.8745 5.60325
